<svg width="756" height="294" viewBox="0 0 756 294" fill="none" xmlns="http://www.w3.org/2000/svg">
<g opacity="0.1">
<mask id="mask0_8959_18095" style="mask-type:alpha" maskUnits="userSpaceOnUse" x="2" y="0" width="755" height="307">
<rect x="2.5" width="754" height="307" fill="url(#paint0_linear_8959_18095)"/>
</mask>
<g mask="url(#mask0_8959_18095)">
<rect x="22.5" width="1" height="333" fill="#1B1E2D"/>
<rect x="371.5" width="1" height="333" fill="#1B1E2D"/>
<rect x="656.5" width="1" height="333" fill="#1B1E2D"/>
<rect x="66.5" width="1" height="333" fill="#1B1E2D"/>
<rect x="415.5" width="1" height="333" fill="#1B1E2D"/>
<rect x="700.5" width="1" height="333" fill="#1B1E2D"/>
<rect x="109.5" width="1" height="333" fill="#1B1E2D"/>
<rect x="458.5" width="1" height="333" fill="#1B1E2D"/>
<rect x="743.5" width="1" height="333" fill="#1B1E2D"/>
<rect x="153.5" width="1" height="333" fill="#1B1E2D"/>
<rect x="502.5" width="1" height="333" fill="#1B1E2D"/>
<rect x="197.5" width="1" height="333" fill="#1B1E2D"/>
<rect x="546.5" width="1" height="333" fill="#1B1E2D"/>
<rect x="197.5" width="1" height="333" fill="#1B1E2D"/>
<rect x="546.5" width="1" height="333" fill="#1B1E2D"/>
<rect x="240.5" width="1" height="333" fill="#1B1E2D"/>
<rect x="589.5" width="1" height="333" fill="#1B1E2D"/>
<rect x="306.5" width="1" height="333" fill="#1B1E2D"/>
<rect x="349.5" width="1" height="333" fill="#1B1E2D"/>
<rect x="43.5" width="1" height="333" fill="#1B1E2D"/>
<rect x="392.5" width="1" height="333" fill="#1B1E2D"/>
<rect x="677.5" width="1" height="333" fill="#1B1E2D"/>
<rect x="87.5" width="1" height="333" fill="#1B1E2D"/>
<rect x="436.5" width="1" height="333" fill="#1B1E2D"/>
<rect x="721.5" width="1" height="333" fill="#1B1E2D"/>
<rect x="131.5" width="1" height="333" fill="#1B1E2D"/>
<rect x="480.5" width="1" height="333" fill="#1B1E2D"/>
<rect x="175.5" width="1" height="333" fill="#1B1E2D"/>
<rect x="524.5" width="1" height="333" fill="#1B1E2D"/>
<rect x="219.5" width="1" height="333" fill="#1B1E2D"/>
<rect x="568.5" width="1" height="333" fill="#1B1E2D"/>
<rect x="284.5" width="1" height="333" fill="#1B1E2D"/>
<rect x="633.5" width="1" height="333" fill="#1B1E2D"/>
<rect x="263.5" width="1" height="333" fill="#1B1E2D"/>
<rect x="612.5" width="1" height="333" fill="#1B1E2D"/>
<rect x="328.5" width="1" height="333" fill="#1B1E2D"/>
<rect x="677.5" width="1" height="333" fill="#1B1E2D"/>
<rect x="940.5" y="133" width="1.00003" height="940" transform="rotate(90 940.5 133)" fill="#1B1E2D"/>
<rect x="940.5" y="177" width="1.00003" height="940" transform="rotate(90 940.5 177)" fill="#1B1E2D"/>
<rect x="940.5" y="222" width="1.00003" height="940" transform="rotate(90 940.5 222)" fill="#1B1E2D"/>
<rect x="940.5" width="1.00003" height="940" transform="rotate(90 940.5 0)" fill="#1B1E2D"/>
<rect x="940.5" y="266" width="1.00003" height="940" transform="rotate(90 940.5 266)" fill="#1B1E2D"/>
<rect x="940.5" y="44" width="1.00003" height="940" transform="rotate(90 940.5 44)" fill="#1B1E2D"/>
<rect x="940.5" y="266" width="1.00003" height="940" transform="rotate(90 940.5 266)" fill="#1B1E2D"/>
<rect x="940.5" y="44" width="1.00003" height="940" transform="rotate(90 940.5 44)" fill="#1B1E2D"/>
<rect x="940.5" y="88" width="1.00003" height="940" transform="rotate(90 940.5 88)" fill="#1B1E2D"/>
<rect x="940.5" y="155" width="1.00003" height="940" transform="rotate(90 940.5 155)" fill="#1B1E2D"/>
<rect x="940.5" y="200" width="1.00003" height="940" transform="rotate(90 940.5 200)" fill="#1B1E2D"/>
<rect x="940.5" y="244" width="1.00003" height="940" transform="rotate(90 940.5 244)" fill="#1B1E2D"/>
<rect x="940.5" y="22" width="1" height="940" transform="rotate(90 940.5 22)" fill="#1B1E2D"/>
<rect x="940.5" y="288" width="1.00003" height="940" transform="rotate(90 940.5 288)" fill="#1B1E2D"/>
<rect x="940.5" y="66" width="1.00003" height="940" transform="rotate(90 940.5 66)" fill="#1B1E2D"/>
<rect x="940.5" y="111" width="1.00003" height="940" transform="rotate(90 940.5 111)" fill="#1B1E2D"/>
</g>
</g>
<defs>
<linearGradient id="paint0_linear_8959_18095" x1="379.5" y1="0" x2="379.5" y2="307" gradientUnits="userSpaceOnUse">
<stop offset="0.046875" stop-color="#D9D9D9" stop-opacity="0"/>
<stop offset="0.807292" stop-color="#D9D9D9"/>
<stop offset="1" stop-color="#D9D9D9" stop-opacity="0"/>
</linearGradient>
</defs>
</svg>
