<svg width="2560" height="447" viewBox="0 0 2560 447" fill="none" xmlns="http://www.w3.org/2000/svg">
<mask id="mask0_1233_13129" style="mask-type:alpha" maskUnits="userSpaceOnUse" x="0" y="0" width="2560" height="447">
<rect width="2560" height="447" fill="#D9D9D9"/>
</mask>
<g mask="url(#mask0_1233_13129)">
<path fill-rule="evenodd" clip-rule="evenodd" d="M0 3220C0 3220 358.214 3220 988.263 3220C1618.31 3220 1810.15 3220 2228.89 3220C2428.74 3220 2560 3220 2560 3220L2560 590.277C2560 590.277 2560 453.606 2560 318.278C1675.34 216 1271.53 318.278 798.307 318.278C261.232 318.278 0 251 0 251L0 3220Z" fill="#F0F4FF"/>
<mask id="mask1_1233_13129" style="mask-type:alpha" maskUnits="userSpaceOnUse" x="0" y="0" width="2560" height="447">
<rect width="2560" height="447" fill="#D9D9D9"/>
</mask>
<g mask="url(#mask1_1233_13129)">
<path opacity="0.5" fill-rule="evenodd" clip-rule="evenodd" d="M-13 40.6965L28.3933 13V68.3931L-13 40.6965Z" stroke="#B1E50E" stroke-width="8"/>
<ellipse opacity="0.5" cx="2435.11" cy="278.75" rx="58.106" ry="57.7495" stroke="#D8F287" stroke-width="12"/>
<g opacity="0.7">
<rect opacity="0.203637" x="18.4688" y="292.86" width="115.622" height="115.499" rx="17.1073" transform="rotate(8.84288 18.4688 292.86)" fill="#C4D3FE"/>
<path fill-rule="evenodd" clip-rule="evenodd" d="M39.5329 280.545C37.3567 279.584 34.8136 280.567 33.8522 282.741C32.8911 284.914 33.8756 287.455 36.0517 288.416C38.2279 289.377 40.7713 288.394 41.7324 286.221C42.6937 284.047 41.709 281.506 39.5329 280.545" fill="#C4D3FE"/>
<path fill-rule="evenodd" clip-rule="evenodd" d="M24.4293 314.697C22.2532 313.736 19.71 314.719 18.7487 316.893C17.7876 319.066 18.772 321.607 20.9482 322.568C23.1244 323.529 25.6678 322.546 26.6289 320.373C27.5902 318.199 26.6055 315.658 24.4293 314.697" fill="#C4D3FE"/>
<path fill-rule="evenodd" clip-rule="evenodd" d="M9.32485 348.849C7.14868 347.888 4.60554 348.871 3.6442 351.045C2.68286 353.219 3.66755 355.76 5.84372 356.721C8.01988 357.682 10.563 356.699 11.5244 354.525C12.4857 352.351 11.501 349.81 9.32485 348.849" fill="#C4D3FE"/>
<path fill-rule="evenodd" clip-rule="evenodd" d="M73.7252 295.645C71.5491 294.684 69.0059 295.667 68.0446 297.841C67.0835 300.014 68.0679 302.555 70.2441 303.516C72.4203 304.478 74.9637 303.494 75.9248 301.321C76.8861 299.147 75.9014 296.606 73.7252 295.645" fill="#C4D3FE"/>
<path fill-rule="evenodd" clip-rule="evenodd" d="M58.6207 329.798C56.4446 328.837 53.9014 329.82 52.9401 331.993C51.979 334.166 52.9635 336.708 55.1396 337.669C57.3158 338.63 59.8592 337.646 60.8203 335.473C61.7816 333.3 60.7969 330.759 58.6207 329.798" fill="#C4D3FE"/>
<path fill-rule="evenodd" clip-rule="evenodd" d="M43.5172 363.95C41.3411 362.989 38.7979 363.972 37.8366 366.146C36.8752 368.319 37.8599 370.86 40.0361 371.821C42.2123 372.782 44.7554 371.799 45.7167 369.626C46.6781 367.452 45.6934 364.911 43.5172 363.95" fill="#C4D3FE"/>
<path fill-rule="evenodd" clip-rule="evenodd" d="M28.4127 398.102C26.2366 397.141 23.6932 398.124 22.7321 400.297C21.7708 402.471 22.7554 405.012 24.9316 405.973C27.1078 406.934 29.6509 405.951 30.6123 403.777C31.5734 401.604 30.5889 399.063 28.4127 398.102" fill="#C4D3FE"/>
<path fill-rule="evenodd" clip-rule="evenodd" d="M107.918 310.746C105.741 309.785 103.198 310.768 102.237 312.941C101.276 315.115 102.26 317.656 104.436 318.617C106.613 319.578 109.156 318.595 110.117 316.422C111.078 314.248 110.094 311.707 107.918 310.746" fill="#C4D3FE"/>
<path fill-rule="evenodd" clip-rule="evenodd" d="M92.8131 344.898C90.637 343.937 88.0938 344.92 87.1325 347.093C86.1714 349.266 87.1558 351.808 89.332 352.769C91.5082 353.73 94.0515 352.747 95.0126 350.573C95.974 348.4 94.9893 345.859 92.8131 344.898" fill="#C4D3FE"/>
<path fill-rule="evenodd" clip-rule="evenodd" d="M77.7086 379.05C75.5325 378.089 72.9893 379.072 72.028 381.246C71.0667 383.419 72.0513 385.96 74.2275 386.921C76.4037 387.882 78.9468 386.899 79.9082 384.726C80.8695 382.552 79.8848 380.011 77.7086 379.05" fill="#C4D3FE"/>
<path fill-rule="evenodd" clip-rule="evenodd" d="M62.6041 413.202C60.428 412.241 57.8846 413.224 56.9235 415.397C55.9622 417.571 56.9469 420.112 59.123 421.073C61.2992 422.034 63.8423 421.051 64.8037 418.878C65.7648 416.704 64.7803 414.163 62.6041 413.202" fill="#C4D3FE"/>
<path fill-rule="evenodd" clip-rule="evenodd" d="M142.108 325.845C139.932 324.884 137.389 325.867 136.427 328.041C135.466 330.214 136.451 332.755 138.627 333.716C140.803 334.677 143.346 333.694 144.308 331.521C145.269 329.347 144.284 326.806 142.108 325.845" fill="#C4D3FE"/>
<path fill-rule="evenodd" clip-rule="evenodd" d="M127.004 359.997C124.827 359.036 122.284 360.019 121.323 362.193C120.362 364.366 121.346 366.907 123.522 367.869C125.699 368.83 128.242 367.846 129.203 365.673C130.164 363.499 129.18 360.958 127.004 359.997" fill="#C4D3FE"/>
<path fill-rule="evenodd" clip-rule="evenodd" d="M111.9 394.15C109.724 393.189 107.181 394.172 106.219 396.345C105.258 398.519 106.243 401.06 108.419 402.021C110.595 402.982 113.138 401.999 114.1 399.825C115.061 397.652 114.076 395.111 111.9 394.15" fill="#C4D3FE"/>
<path fill-rule="evenodd" clip-rule="evenodd" d="M96.7956 428.302C94.6194 427.341 92.076 428.324 91.1149 430.498C90.1536 432.671 91.1383 435.212 93.3144 436.173C95.4906 437.134 98.0337 436.151 98.9951 433.978C99.9562 431.805 98.9717 429.263 96.7956 428.302" fill="#C4D3FE"/>
</g>
<rect x="3.09522" y="1.25055" width="42.4658" height="42.4313" transform="matrix(0.920654 -0.390379 0.391083 0.920355 2234.76 21.7278)" stroke="#B5C8FE" stroke-width="4.71927"/>
</g>
</g>
</svg>
