<svg width="2560" height="715" viewBox="0 0 2560 715" fill="none" xmlns="http://www.w3.org/2000/svg">
<path fill-rule="evenodd" clip-rule="evenodd" d="M0 715C0 715 358.214 715 988.263 715C1618.31 715 1810.15 715 2228.89 715C2428.74 715 2560 715 2560 715V81.7053C2560 81.7053 2152.31 44.7189 1870.44 51.8281C1409.61 63.4512 1113.95 86.7594 842.038 81.7053C394.758 73.3916 0 2.38419e-05 0 2.38419e-05L0 715Z" fill="white"/>
<ellipse opacity="0.8" cx="305.453" cy="223.143" rx="14.4528" ry="14.1429" stroke="#EED9F6" stroke-width="4.71927"/>
<circle opacity="0.5" cx="2312" cy="171" r="16" stroke="#D8F287" stroke-width="4"/>
<path d="M116.279 508.717L124.856 482.591L129.791 484.214L121.214 510.34L147.216 518.891L145.595 523.827L119.594 515.276L111.057 541.282L106.121 539.659L114.659 513.653L88.5372 505.062L90.1577 500.126L116.279 508.717Z" fill="#E1E9FE"/>
<path fill-rule="evenodd" clip-rule="evenodd" d="M364.957 475.106C364.067 475.335 363.53 476.241 363.758 477.131C363.986 478.022 364.892 478.558 365.782 478.33C366.672 478.102 367.209 477.195 366.981 476.305C366.754 475.415 365.848 474.878 364.957 475.106" fill="#C8ED56"/>
<path fill-rule="evenodd" clip-rule="evenodd" d="M367.116 483.143C366.225 483.371 365.688 484.278 365.916 485.168C366.144 486.058 367.05 486.595 367.94 486.367C368.83 486.139 369.367 485.232 369.14 484.342C368.912 483.452 368.006 482.915 367.116 483.143" fill="#C8ED56"/>
<path fill-rule="evenodd" clip-rule="evenodd" d="M373.04 473.186C372.15 473.414 371.613 474.321 371.841 475.211C372.069 476.101 372.975 476.638 373.865 476.41C374.755 476.182 375.292 475.275 375.064 474.385C374.837 473.495 373.931 472.958 373.04 473.186" fill="#C8ED56"/>
<path fill-rule="evenodd" clip-rule="evenodd" d="M375.199 481.223C374.308 481.451 373.771 482.357 373.999 483.248C374.227 484.138 375.133 484.675 376.023 484.447C376.913 484.218 377.45 483.312 377.223 482.421C376.995 481.531 376.089 480.994 375.199 481.223" fill="#C8ED56"/>
<path fill-rule="evenodd" clip-rule="evenodd" d="M369.041 491.074C368.151 491.302 367.614 492.208 367.842 493.099C368.07 493.989 368.976 494.526 369.866 494.298C370.756 494.069 371.293 493.163 371.065 492.272C370.838 491.382 369.932 490.845 369.041 491.074" fill="#C8ED56"/>
<path fill-rule="evenodd" clip-rule="evenodd" d="M371.2 499.11C370.309 499.338 369.772 500.245 370 501.135C370.228 502.025 371.134 502.562 372.024 502.334C372.914 502.106 373.451 501.199 373.224 500.309C372.996 499.419 372.09 498.882 371.2 499.11" fill="#C8ED56"/>
<path fill-rule="evenodd" clip-rule="evenodd" d="M377.124 489.153C376.234 489.381 375.697 490.288 375.925 491.178C376.153 492.068 377.059 492.605 377.949 492.377C378.839 492.149 379.376 491.242 379.148 490.352C378.921 489.462 378.015 488.925 377.124 489.153" fill="#C8ED56"/>
<path fill-rule="evenodd" clip-rule="evenodd" d="M379.284 497.189C378.393 497.418 377.856 498.324 378.084 499.214C378.312 500.105 379.218 500.641 380.108 500.413C380.998 500.185 381.535 499.278 381.308 498.388C381.08 497.498 380.174 496.961 379.284 497.189" fill="#C8ED56"/>
<path fill-rule="evenodd" clip-rule="evenodd" d="M373.125 507.041C372.235 507.269 371.698 508.176 371.926 509.066C372.154 509.956 373.06 510.493 373.95 510.265C374.84 510.037 375.377 509.13 375.149 508.24C374.922 507.349 374.016 506.813 373.125 507.041" fill="#C8ED56"/>
<path fill-rule="evenodd" clip-rule="evenodd" d="M375.285 515.078C374.394 515.306 373.857 516.212 374.085 517.103C374.313 517.993 375.219 518.53 376.109 518.301C376.999 518.073 377.536 517.167 377.309 516.276C377.081 515.386 376.175 514.849 375.285 515.078" fill="#C8ED56"/>
<path fill-rule="evenodd" clip-rule="evenodd" d="M381.21 505.12C380.32 505.348 379.783 506.255 380.011 507.145C380.239 508.035 381.145 508.572 382.035 508.344C382.925 508.116 383.462 507.209 383.234 506.319C383.007 505.429 382.101 504.892 381.21 505.12" fill="#C8ED56"/>
<path fill-rule="evenodd" clip-rule="evenodd" d="M383.368 513.157C382.477 513.385 381.94 514.291 382.168 515.182C382.396 516.072 383.302 516.609 384.192 516.381C385.082 516.152 385.619 515.246 385.392 514.355C385.164 513.465 384.258 512.929 383.368 513.157" fill="#C8ED56"/>
<path fill-rule="evenodd" clip-rule="evenodd" d="M377.209 523.009C376.319 523.237 375.782 524.144 376.01 525.034C376.238 525.924 377.144 526.461 378.034 526.233C378.924 526.004 379.461 525.098 379.233 524.208C379.006 523.317 378.1 522.781 377.209 523.009" fill="#C8ED56"/>
<path fill-rule="evenodd" clip-rule="evenodd" d="M379.368 531.045C378.477 531.273 377.94 532.18 378.168 533.07C378.396 533.96 379.302 534.497 380.192 534.269C381.082 534.041 381.619 533.134 381.392 532.244C381.164 531.354 380.258 530.817 379.368 531.045" fill="#C8ED56"/>
<path fill-rule="evenodd" clip-rule="evenodd" d="M385.293 521.088C384.403 521.316 383.866 522.223 384.094 523.113C384.322 524.003 385.228 524.54 386.118 524.312C387.008 524.084 387.545 523.177 387.317 522.287C387.09 521.397 386.184 520.86 385.293 521.088" fill="#C8ED56"/>
<path fill-rule="evenodd" clip-rule="evenodd" d="M387.452 529.124C386.561 529.353 386.024 530.259 386.252 531.15C386.48 532.04 387.386 532.577 388.276 532.348C389.166 532.12 389.703 531.214 389.476 530.323C389.248 529.433 388.342 528.896 387.452 529.124" fill="#C8ED56"/>
<path fill-rule="evenodd" clip-rule="evenodd" d="M380.922 471.014C380.032 471.242 379.495 472.149 379.723 473.039C379.95 473.929 380.857 474.466 381.747 474.238C382.637 474.01 383.174 473.103 382.946 472.213C382.719 471.323 381.812 470.786 380.922 471.014" fill="#C8ED56"/>
<path fill-rule="evenodd" clip-rule="evenodd" d="M383.08 479.05C382.19 479.278 381.653 480.185 381.881 481.075C382.109 481.965 383.015 482.502 383.905 482.274C384.795 482.046 385.332 481.139 385.104 480.249C384.877 479.359 383.971 478.822 383.08 479.05" fill="#C8ED56"/>
<path fill-rule="evenodd" clip-rule="evenodd" d="M389.007 469.093C388.117 469.321 387.58 470.228 387.808 471.118C388.035 472.008 388.942 472.545 389.832 472.317C390.722 472.089 391.259 471.182 391.031 470.292C390.803 469.402 389.897 468.865 389.007 469.093" fill="#C8ED56"/>
<path fill-rule="evenodd" clip-rule="evenodd" d="M391.164 477.13C390.274 477.358 389.737 478.265 389.965 479.155C390.193 480.045 391.099 480.582 391.989 480.354C392.879 480.126 393.416 479.219 393.188 478.329C392.961 477.438 392.055 476.902 391.164 477.13" fill="#C8ED56"/>
<path fill-rule="evenodd" clip-rule="evenodd" d="M385.006 486.982C384.116 487.21 383.579 488.117 383.807 489.007C384.034 489.897 384.941 490.434 385.831 490.206C386.721 489.978 387.258 489.071 387.03 488.181C386.803 487.29 385.896 486.754 385.006 486.982" fill="#C8ED56"/>
<path fill-rule="evenodd" clip-rule="evenodd" d="M387.165 495.019C386.275 495.247 385.738 496.153 385.966 497.044C386.194 497.934 387.1 498.471 387.99 498.242C388.88 498.014 389.417 497.107 389.189 496.217C388.962 495.327 388.056 494.79 387.165 495.019" fill="#C8ED56"/>
<path fill-rule="evenodd" clip-rule="evenodd" d="M393.091 485.061C392.201 485.289 391.664 486.196 391.892 487.086C392.119 487.976 393.026 488.513 393.916 488.285C394.806 488.057 395.343 487.15 395.115 486.26C394.887 485.369 393.981 484.833 393.091 485.061" fill="#C8ED56"/>
<path fill-rule="evenodd" clip-rule="evenodd" d="M395.248 493.098C394.358 493.326 393.821 494.232 394.049 495.123C394.277 496.013 395.183 496.55 396.073 496.322C396.963 496.093 397.5 495.186 397.272 494.296C397.045 493.406 396.139 492.869 395.248 493.098" fill="#C8ED56"/>
<path fill-rule="evenodd" clip-rule="evenodd" d="M389.091 502.948C388.201 503.176 387.664 504.083 387.892 504.973C388.119 505.864 389.026 506.4 389.916 506.172C390.806 505.944 391.343 505.037 391.115 504.147C390.887 503.257 389.981 502.72 389.091 502.948" fill="#C8ED56"/>
<path fill-rule="evenodd" clip-rule="evenodd" d="M391.249 510.985C390.359 511.213 389.822 512.12 390.05 513.01C390.278 513.901 391.184 514.437 392.074 514.209C392.964 513.981 393.501 513.074 393.273 512.184C393.046 511.294 392.14 510.757 391.249 510.985" fill="#C8ED56"/>
<path fill-rule="evenodd" clip-rule="evenodd" d="M397.175 501.027C396.285 501.255 395.748 502.162 395.976 503.052C396.203 503.943 397.11 504.479 398 504.251C398.89 504.023 399.427 503.116 399.199 502.226C398.971 501.336 398.065 500.799 397.175 501.027" fill="#C8ED56"/>
<path fill-rule="evenodd" clip-rule="evenodd" d="M399.332 509.064C398.442 509.293 397.905 510.199 398.133 511.089C398.361 511.98 399.267 512.516 400.157 512.288C401.047 512.06 401.584 511.154 401.356 510.263C401.129 509.373 400.223 508.836 399.332 509.064" fill="#C8ED56"/>
<path fill-rule="evenodd" clip-rule="evenodd" d="M393.174 518.916C392.284 519.144 391.747 520.051 391.975 520.941C392.202 521.831 393.109 522.368 393.999 522.14C394.889 521.912 395.426 521.005 395.198 520.115C394.971 519.225 394.064 518.688 393.174 518.916" fill="#C8ED56"/>
<path fill-rule="evenodd" clip-rule="evenodd" d="M395.332 526.953C394.442 527.181 393.905 528.088 394.133 528.978C394.361 529.868 395.267 530.405 396.157 530.177C397.047 529.949 397.584 529.042 397.356 528.152C397.129 527.262 396.223 526.725 395.332 526.953" fill="#C8ED56"/>
<path fill-rule="evenodd" clip-rule="evenodd" d="M401.258 516.996C400.368 517.224 399.831 518.131 400.059 519.021C400.286 519.911 401.193 520.448 402.083 520.219C402.973 519.991 403.51 519.085 403.282 518.194C403.055 517.304 402.148 516.767 401.258 516.996" fill="#C8ED56"/>
<path fill-rule="evenodd" clip-rule="evenodd" d="M403.416 525.032C402.526 525.26 401.989 526.167 402.217 527.057C402.445 527.947 403.351 528.484 404.241 528.256C405.131 528.027 405.668 527.121 405.44 526.23C405.213 525.34 404.307 524.804 403.416 525.032" fill="#C8ED56"/>
<path fill-rule="evenodd" clip-rule="evenodd" d="M396.888 466.921C395.998 467.15 395.461 468.056 395.689 468.946C395.916 469.837 396.822 470.373 397.713 470.145C398.603 469.917 399.14 469.01 398.912 468.12C398.684 467.23 397.778 466.693 396.888 466.921" fill="#C8ED56"/>
<path fill-rule="evenodd" clip-rule="evenodd" d="M399.045 474.958C398.155 475.186 397.618 476.093 397.846 476.983C398.074 477.873 398.98 478.41 399.87 478.182C400.76 477.954 401.297 477.047 401.069 476.157C400.842 475.266 399.935 474.73 399.045 474.958" fill="#C8ED56"/>
<path fill-rule="evenodd" clip-rule="evenodd" d="M404.972 465C404.082 465.229 403.545 466.135 403.773 467.026C404 467.916 404.906 468.453 405.797 468.224C406.687 467.996 407.224 467.089 406.996 466.199C406.768 465.309 405.862 464.772 404.972 465" fill="#C8ED56"/>
<path fill-rule="evenodd" clip-rule="evenodd" d="M407.13 473.037C406.24 473.265 405.703 474.172 405.931 475.062C406.158 475.952 407.065 476.489 407.955 476.261C408.845 476.033 409.382 475.126 409.154 474.236C408.927 473.346 408.02 472.809 407.13 473.037" fill="#C8ED56"/>
<path fill-rule="evenodd" clip-rule="evenodd" d="M400.972 482.889C400.082 483.117 399.545 484.024 399.773 484.914C400 485.804 400.906 486.341 401.797 486.113C402.687 485.885 403.224 484.978 402.996 484.088C402.768 483.198 401.862 482.661 400.972 482.889" fill="#C8ED56"/>
<path fill-rule="evenodd" clip-rule="evenodd" d="M403.13 490.926C402.24 491.154 401.703 492.061 401.931 492.951C402.158 493.841 403.065 494.378 403.955 494.15C404.845 493.921 405.382 493.015 405.154 492.125C404.927 491.234 404.02 490.698 403.13 490.926" fill="#C8ED56"/>
<path fill-rule="evenodd" clip-rule="evenodd" d="M409.056 480.968C408.166 481.196 407.629 482.103 407.857 482.993C408.084 483.883 408.99 484.42 409.881 484.192C410.771 483.964 411.308 483.057 411.08 482.167C410.852 481.277 409.946 480.74 409.056 480.968" fill="#C8ED56"/>
<path fill-rule="evenodd" clip-rule="evenodd" d="M411.213 489.005C410.323 489.233 409.786 490.14 410.014 491.03C410.242 491.92 411.148 492.457 412.038 492.229C412.928 492.001 413.465 491.094 413.237 490.204C413.01 489.313 412.103 488.777 411.213 489.005" fill="#C8ED56"/>
<path fill-rule="evenodd" clip-rule="evenodd" d="M405.057 498.856C404.167 499.084 403.63 499.991 403.858 500.881C404.085 501.771 404.991 502.308 405.882 502.08C406.772 501.852 407.309 500.945 407.081 500.055C406.853 499.164 405.947 498.628 405.057 498.856" fill="#C8ED56"/>
<path fill-rule="evenodd" clip-rule="evenodd" d="M407.214 506.893C406.324 507.121 405.787 508.028 406.015 508.918C406.243 509.808 407.149 510.345 408.039 510.117C408.929 509.889 409.466 508.982 409.238 508.092C409.011 507.202 408.104 506.665 407.214 506.893" fill="#C8ED56"/>
<path fill-rule="evenodd" clip-rule="evenodd" d="M413.14 496.935C412.25 497.164 411.713 498.07 411.941 498.961C412.168 499.851 413.074 500.388 413.965 500.159C414.855 499.931 415.392 499.025 415.164 498.134C414.936 497.244 414.03 496.707 413.14 496.935" fill="#C8ED56"/>
<path fill-rule="evenodd" clip-rule="evenodd" d="M415.297 504.972C414.407 505.2 413.87 506.107 414.098 506.997C414.326 507.888 415.232 508.424 416.122 508.196C417.012 507.968 417.549 507.061 417.321 506.171C417.094 505.281 416.187 504.744 415.297 504.972" fill="#C8ED56"/>
<path fill-rule="evenodd" clip-rule="evenodd" d="M409.14 514.824C408.25 515.052 407.713 515.959 407.941 516.849C408.168 517.739 409.074 518.276 409.965 518.048C410.855 517.819 411.392 516.913 411.164 516.022C410.936 515.132 410.03 514.595 409.14 514.824" fill="#C8ED56"/>
<path fill-rule="evenodd" clip-rule="evenodd" d="M411.298 522.86C410.408 523.088 409.871 523.995 410.099 524.885C410.327 525.776 411.233 526.312 412.123 526.084C413.013 525.856 413.55 524.949 413.322 524.059C413.095 523.169 412.188 522.632 411.298 522.86" fill="#C8ED56"/>
<path fill-rule="evenodd" clip-rule="evenodd" d="M417.224 512.903C416.334 513.131 415.797 514.038 416.025 514.928C416.252 515.819 417.158 516.355 418.049 516.127C418.939 515.899 419.476 514.992 419.248 514.102C419.02 513.212 418.114 512.675 417.224 512.903" fill="#C8ED56"/>
<path fill-rule="evenodd" clip-rule="evenodd" d="M419.381 520.94C418.491 521.168 417.954 522.075 418.182 522.965C418.41 523.855 419.316 524.392 420.206 524.164C421.096 523.936 421.633 523.029 421.405 522.139C421.178 521.249 420.271 520.712 419.381 520.94" fill="#C8ED56"/>
<path fill-rule="evenodd" clip-rule="evenodd" d="M412.854 462.829C411.964 463.057 411.427 463.964 411.654 464.854C411.882 465.744 412.788 466.281 413.678 466.053C414.569 465.825 415.106 464.918 414.878 464.028C414.65 463.138 413.744 462.601 412.854 462.829" fill="#C8ED56"/>
<path fill-rule="evenodd" clip-rule="evenodd" d="M415.011 470.866C414.121 471.094 413.584 472 413.812 472.891C414.039 473.781 414.946 474.318 415.836 474.09C416.726 473.861 417.263 472.955 417.035 472.064C416.807 471.174 415.901 470.637 415.011 470.866" fill="#C8ED56"/>
<path fill-rule="evenodd" clip-rule="evenodd" d="M420.937 460.908C420.047 461.136 419.51 462.043 419.737 462.933C419.965 463.823 420.871 464.36 421.761 464.132C422.652 463.904 423.189 462.997 422.961 462.107C422.733 461.217 421.827 460.68 420.937 460.908" fill="#C8ED56"/>
<path fill-rule="evenodd" clip-rule="evenodd" d="M423.094 468.945C422.204 469.173 421.667 470.08 421.895 470.97C422.122 471.86 423.029 472.397 423.919 472.169C424.809 471.94 425.346 471.034 425.118 470.144C424.89 469.253 423.984 468.717 423.094 468.945" fill="#C8ED56"/>
<path fill-rule="evenodd" clip-rule="evenodd" d="M416.937 478.796C416.047 479.025 415.51 479.931 415.737 480.821C415.965 481.712 416.871 482.248 417.761 482.02C418.652 481.792 419.189 480.885 418.961 479.995C418.733 479.105 417.827 478.568 416.937 478.796" fill="#C8ED56"/>
<path fill-rule="evenodd" clip-rule="evenodd" d="M419.095 486.833C418.205 487.062 417.668 487.968 417.896 488.859C418.123 489.749 419.03 490.286 419.92 490.057C420.81 489.829 421.347 488.922 421.119 488.032C420.891 487.142 419.985 486.605 419.095 486.833" fill="#C8ED56"/>
<path fill-rule="evenodd" clip-rule="evenodd" d="M425.021 476.876C424.131 477.104 423.594 478.011 423.821 478.901C424.049 479.791 424.955 480.328 425.845 480.1C426.736 479.872 427.273 478.965 427.045 478.075C426.817 477.184 425.911 476.648 425.021 476.876" fill="#C8ED56"/>
<path fill-rule="evenodd" clip-rule="evenodd" d="M427.178 484.913C426.288 485.141 425.751 486.047 425.979 486.938C426.206 487.828 427.113 488.365 428.003 488.136C428.893 487.908 429.43 487.001 429.202 486.111C428.974 485.221 428.068 484.684 427.178 484.913" fill="#C8ED56"/>
<path fill-rule="evenodd" clip-rule="evenodd" d="M421.022 494.764C420.132 494.992 419.595 495.899 419.822 496.789C420.05 497.679 420.956 498.216 421.846 497.988C422.737 497.76 423.274 496.853 423.046 495.963C422.818 495.073 421.912 494.536 421.022 494.764" fill="#C8ED56"/>
<path fill-rule="evenodd" clip-rule="evenodd" d="M423.179 502.801C422.289 503.029 421.752 503.936 421.98 504.826C422.207 505.716 423.113 506.253 424.004 506.025C424.894 505.796 425.431 504.89 425.203 504C424.975 503.109 424.069 502.573 423.179 502.801" fill="#C8ED56"/>
<path fill-rule="evenodd" clip-rule="evenodd" d="M429.105 492.843C428.215 493.071 427.678 493.978 427.905 494.868C428.133 495.759 429.039 496.295 429.929 496.067C430.82 495.839 431.357 494.932 431.129 494.042C430.901 493.152 429.995 492.615 429.105 492.843" fill="#C8ED56"/>
<path fill-rule="evenodd" clip-rule="evenodd" d="M431.262 500.88C430.372 501.109 429.835 502.015 430.063 502.905C430.29 503.796 431.196 504.332 432.087 504.104C432.977 503.876 433.514 502.969 433.286 502.079C433.058 501.189 432.152 500.652 431.262 500.88" fill="#C8ED56"/>
<path fill-rule="evenodd" clip-rule="evenodd" d="M425.105 510.732C424.215 510.96 423.678 511.867 423.905 512.757C424.133 513.647 425.039 514.184 425.929 513.956C426.82 513.728 427.357 512.821 427.129 511.931C426.901 511.041 425.995 510.504 425.105 510.732" fill="#C8ED56"/>
<path fill-rule="evenodd" clip-rule="evenodd" d="M427.263 518.769C426.373 518.997 425.836 519.904 426.064 520.794C426.291 521.684 427.197 522.221 428.088 521.992C428.978 521.764 429.515 520.858 429.287 519.967C429.059 519.077 428.153 518.54 427.263 518.769" fill="#C8ED56"/>
<path fill-rule="evenodd" clip-rule="evenodd" d="M433.189 508.811C432.299 509.039 431.762 509.946 431.989 510.836C432.217 511.726 433.123 512.263 434.013 512.035C434.904 511.807 435.441 510.9 435.213 510.01C434.985 509.12 434.079 508.583 433.189 508.811" fill="#C8ED56"/>
<path fill-rule="evenodd" clip-rule="evenodd" d="M435.346 516.848C434.456 517.076 433.919 517.983 434.147 518.873C434.374 519.763 435.28 520.3 436.171 520.072C437.061 519.843 437.598 518.937 437.37 518.046C437.142 517.156 436.236 516.619 435.346 516.848" fill="#C8ED56"/>
</svg>
