<svg width="360" height="458" viewBox="0 0 360 458" fill="none" xmlns="http://www.w3.org/2000/svg">
<mask id="mask0_1496_15997" style="mask-type:alpha" maskUnits="userSpaceOnUse" x="0" y="0" width="360" height="458">
<path d="M0 0H360V458H0V0Z" fill="#D9D9D9"/>
</mask>
<g mask="url(#mask0_1496_15997)">
<path fill-rule="evenodd" clip-rule="evenodd" d="M0 458C0 458 50.3738 458 138.975 458C227.575 458 254.553 458 313.437 458C341.542 458 360 458 360 458L360 18.6897C360 18.6897 327 5.00012 280.5 9.1485C213.267 15.1465 195.5 29.5001 115 29.5001C40.5 29.5001 0 5.00012 0 5.00012L0 458Z" fill="white"/>
<circle opacity="0.5" cx="340" cy="55.0001" r="9" stroke="#D8F287" stroke-width="2"/>
<rect opacity="0.7" x="1.31174" y="0.529976" width="23.9691" height="23.9691" transform="matrix(0.920654 -0.390379 0.391083 0.920355 8.89682 417.692)" stroke="#B9B8EF" stroke-width="2"/>
<path d="M18.1202 17.3397L22.4039 4.2907L24.869 5.10139L20.5852 18.1504L33.5718 22.4214L32.7624 24.8868L19.7758 20.6159L15.5118 33.6048L13.0467 32.7941L17.3108 19.8052L4.26404 15.5145L5.07342 13.049L18.1202 17.3397Z" fill="#E1E9FE"/>
<path fill-rule="evenodd" clip-rule="evenodd" d="M320.753 402.638C320.084 402.809 319.681 403.491 319.852 404.16C320.023 404.829 320.704 405.232 321.373 405.061C322.042 404.889 322.446 404.208 322.275 403.539C322.104 402.869 321.423 402.466 320.753 402.638" fill="#C8ED56"/>
<path fill-rule="evenodd" clip-rule="evenodd" d="M322.376 408.679C321.706 408.85 321.303 409.532 321.474 410.201C321.645 410.87 322.326 411.273 322.995 411.102C323.664 410.93 324.068 410.249 323.897 409.58C323.726 408.91 323.045 408.507 322.376 408.679" fill="#C8ED56"/>
<path fill-rule="evenodd" clip-rule="evenodd" d="M326.829 401.194C326.16 401.365 325.756 402.047 325.927 402.716C326.098 403.385 326.779 403.789 327.449 403.617C328.118 403.446 328.521 402.764 328.35 402.095C328.179 401.426 327.498 401.022 326.829 401.194" fill="#C8ED56"/>
<path fill-rule="evenodd" clip-rule="evenodd" d="M328.452 407.235C327.783 407.406 327.379 408.088 327.55 408.757C327.721 409.426 328.402 409.83 329.072 409.658C329.741 409.487 330.144 408.805 329.973 408.136C329.802 407.467 329.121 407.063 328.452 407.235" fill="#C8ED56"/>
<path fill-rule="evenodd" clip-rule="evenodd" d="M323.824 414.64C323.155 414.811 322.751 415.493 322.922 416.162C323.093 416.831 323.774 417.235 324.444 417.063C325.113 416.892 325.516 416.21 325.345 415.541C325.174 414.872 324.493 414.468 323.824 414.64" fill="#C8ED56"/>
<path fill-rule="evenodd" clip-rule="evenodd" d="M325.445 420.681C324.776 420.852 324.372 421.534 324.543 422.203C324.714 422.872 325.396 423.276 326.065 423.104C326.734 422.933 327.137 422.251 326.966 421.582C326.795 420.913 326.114 420.509 325.445 420.681" fill="#C8ED56"/>
<path fill-rule="evenodd" clip-rule="evenodd" d="M329.899 413.196C329.23 413.368 328.826 414.049 328.997 414.718C329.169 415.387 329.85 415.791 330.519 415.619C331.188 415.448 331.592 414.766 331.42 414.097C331.249 413.428 330.568 413.025 329.899 413.196" fill="#C8ED56"/>
<path fill-rule="evenodd" clip-rule="evenodd" d="M331.521 419.237C330.852 419.408 330.448 420.09 330.619 420.759C330.791 421.428 331.472 421.832 332.141 421.66C332.81 421.489 333.214 420.807 333.042 420.138C332.871 419.469 332.19 419.065 331.521 419.237" fill="#C8ED56"/>
<path fill-rule="evenodd" clip-rule="evenodd" d="M326.893 426.642C326.224 426.814 325.82 427.495 325.992 428.164C326.163 428.834 326.844 429.237 327.513 429.065C328.182 428.894 328.586 428.212 328.415 427.543C328.243 426.874 327.562 426.471 326.893 426.642" fill="#C8ED56"/>
<path fill-rule="evenodd" clip-rule="evenodd" d="M328.516 432.683C327.847 432.855 327.443 433.536 327.615 434.205C327.786 434.875 328.467 435.278 329.136 435.106C329.805 434.935 330.209 434.253 330.038 433.584C329.866 432.915 329.185 432.512 328.516 432.683" fill="#C8ED56"/>
<path fill-rule="evenodd" clip-rule="evenodd" d="M332.97 425.198C332.301 425.37 331.898 426.051 332.069 426.72C332.24 427.39 332.921 427.793 333.59 427.622C334.259 427.45 334.663 426.769 334.492 426.099C334.321 425.43 333.639 425.027 332.97 425.198" fill="#C8ED56"/>
<path fill-rule="evenodd" clip-rule="evenodd" d="M334.591 431.239C333.922 431.411 333.519 432.092 333.69 432.761C333.861 433.431 334.542 433.834 335.211 433.663C335.88 433.491 336.284 432.81 336.113 432.14C335.942 431.471 335.26 431.068 334.591 431.239" fill="#C8ED56"/>
<path fill-rule="evenodd" clip-rule="evenodd" d="M329.962 438.645C329.293 438.816 328.89 439.498 329.061 440.167C329.232 440.836 329.913 441.24 330.582 441.068C331.251 440.897 331.655 440.215 331.484 439.546C331.313 438.877 330.632 438.473 329.962 438.645" fill="#C8ED56"/>
<path fill-rule="evenodd" clip-rule="evenodd" d="M331.586 444.686C330.916 444.857 330.513 445.539 330.684 446.208C330.855 446.877 331.536 447.28 332.205 447.109C332.874 446.937 333.278 446.256 333.107 445.587C332.936 444.918 332.255 444.514 331.586 444.686" fill="#C8ED56"/>
<path fill-rule="evenodd" clip-rule="evenodd" d="M336.04 437.201C335.37 437.372 334.967 438.054 335.138 438.723C335.309 439.392 335.99 439.796 336.659 439.624C337.329 439.453 337.732 438.771 337.561 438.102C337.39 437.433 336.709 437.029 336.04 437.201" fill="#C8ED56"/>
<path fill-rule="evenodd" clip-rule="evenodd" d="M337.662 443.242C336.993 443.413 336.589 444.095 336.76 444.764C336.931 445.433 337.612 445.837 338.282 445.665C338.951 445.494 339.354 444.812 339.183 444.143C339.012 443.474 338.331 443.07 337.662 443.242" fill="#C8ED56"/>
<path fill-rule="evenodd" clip-rule="evenodd" d="M332.754 399.561C332.085 399.733 331.682 400.414 331.853 401.083C332.024 401.753 332.705 402.156 333.374 401.985C334.043 401.813 334.447 401.131 334.276 400.462C334.105 399.793 333.424 399.39 332.754 399.561" fill="#C8ED56"/>
<path fill-rule="evenodd" clip-rule="evenodd" d="M334.377 405.602C333.707 405.774 333.304 406.455 333.475 407.124C333.646 407.793 334.327 408.197 334.996 408.025C335.665 407.854 336.069 407.172 335.898 406.503C335.727 405.834 335.046 405.431 334.377 405.602" fill="#C8ED56"/>
<path fill-rule="evenodd" clip-rule="evenodd" d="M338.831 398.117C338.162 398.289 337.758 398.97 337.929 399.64C338.1 400.309 338.781 400.712 339.45 400.541C340.12 400.369 340.523 399.688 340.352 399.019C340.181 398.349 339.5 397.946 338.831 398.117" fill="#C8ED56"/>
<path fill-rule="evenodd" clip-rule="evenodd" d="M340.453 404.158C339.784 404.33 339.38 405.011 339.551 405.681C339.722 406.35 340.403 406.753 341.073 406.582C341.742 406.41 342.145 405.729 341.974 405.06C341.803 404.39 341.122 403.987 340.453 404.158" fill="#C8ED56"/>
<path fill-rule="evenodd" clip-rule="evenodd" d="M335.824 411.564C335.155 411.736 334.751 412.417 334.922 413.086C335.093 413.755 335.774 414.159 336.444 413.987C337.113 413.816 337.516 413.134 337.345 412.465C337.174 411.796 336.493 411.393 335.824 411.564" fill="#C8ED56"/>
<path fill-rule="evenodd" clip-rule="evenodd" d="M337.447 417.605C336.778 417.776 336.374 418.458 336.545 419.127C336.716 419.796 337.398 420.2 338.067 420.028C338.736 419.857 339.139 419.175 338.968 418.506C338.797 417.837 338.116 417.433 337.447 417.605" fill="#C8ED56"/>
<path fill-rule="evenodd" clip-rule="evenodd" d="M341.901 410.12C341.232 410.292 340.828 410.973 340.999 411.642C341.17 412.311 341.852 412.715 342.521 412.543C343.19 412.372 343.593 411.69 343.422 411.021C343.251 410.352 342.57 409.948 341.901 410.12" fill="#C8ED56"/>
<path fill-rule="evenodd" clip-rule="evenodd" d="M343.522 416.161C342.853 416.333 342.449 417.014 342.62 417.683C342.792 418.352 343.473 418.756 344.142 418.584C344.811 418.413 345.215 417.731 345.043 417.062C344.872 416.393 344.191 415.989 343.522 416.161" fill="#C8ED56"/>
<path fill-rule="evenodd" clip-rule="evenodd" d="M338.894 423.566C338.225 423.737 337.821 424.419 337.993 425.088C338.164 425.757 338.845 426.161 339.514 425.989C340.183 425.818 340.587 425.136 340.416 424.467C340.244 423.798 339.563 423.394 338.894 423.566" fill="#C8ED56"/>
<path fill-rule="evenodd" clip-rule="evenodd" d="M340.516 429.607C339.847 429.778 339.443 430.46 339.615 431.129C339.786 431.798 340.467 432.202 341.136 432.03C341.805 431.859 342.209 431.177 342.038 430.508C341.866 429.839 341.185 429.435 340.516 429.607" fill="#C8ED56"/>
<path fill-rule="evenodd" clip-rule="evenodd" d="M344.97 422.122C344.301 422.293 343.898 422.975 344.069 423.644C344.24 424.313 344.921 424.717 345.59 424.545C346.259 424.374 346.663 423.692 346.492 423.023C346.321 422.354 345.639 421.95 344.97 422.122" fill="#C8ED56"/>
<path fill-rule="evenodd" clip-rule="evenodd" d="M346.592 428.163C345.923 428.334 345.52 429.016 345.691 429.685C345.862 430.354 346.543 430.758 347.212 430.586C347.881 430.415 348.285 429.733 348.114 429.064C347.943 428.395 347.261 427.991 346.592 428.163" fill="#C8ED56"/>
<path fill-rule="evenodd" clip-rule="evenodd" d="M341.963 435.568C341.294 435.74 340.891 436.422 341.062 437.091C341.233 437.76 341.914 438.163 342.583 437.992C343.252 437.82 343.656 437.139 343.485 436.47C343.314 435.801 342.633 435.397 341.963 435.568" fill="#C8ED56"/>
<path fill-rule="evenodd" clip-rule="evenodd" d="M343.586 441.609C342.916 441.781 342.513 442.463 342.684 443.132C342.855 443.801 343.536 444.204 344.205 444.033C344.874 443.861 345.278 443.18 345.107 442.511C344.936 441.842 344.255 441.438 343.586 441.609" fill="#C8ED56"/>
<path fill-rule="evenodd" clip-rule="evenodd" d="M348.04 434.125C347.37 434.296 346.967 434.978 347.138 435.647C347.309 436.316 347.99 436.72 348.659 436.548C349.329 436.377 349.732 435.695 349.561 435.026C349.39 434.357 348.709 433.953 348.04 434.125" fill="#C8ED56"/>
<path fill-rule="evenodd" clip-rule="evenodd" d="M349.663 440.165C348.994 440.337 348.59 441.019 348.761 441.688C348.932 442.357 349.613 442.76 350.282 442.589C350.952 442.417 351.355 441.736 351.184 441.067C351.013 440.397 350.332 439.994 349.663 440.165" fill="#C8ED56"/>
<path fill-rule="evenodd" clip-rule="evenodd" d="M344.754 396.485C344.085 396.657 343.682 397.338 343.853 398.007C344.024 398.676 344.705 399.08 345.374 398.908C346.043 398.737 346.447 398.055 346.276 397.386C346.105 396.717 345.424 396.313 344.754 396.485" fill="#C8ED56"/>
<path fill-rule="evenodd" clip-rule="evenodd" d="M346.377 402.526C345.707 402.698 345.304 403.379 345.475 404.048C345.646 404.717 346.327 405.121 346.996 404.949C347.665 404.778 348.069 404.096 347.898 403.427C347.727 402.758 347.046 402.354 346.377 402.526" fill="#C8ED56"/>
<path fill-rule="evenodd" clip-rule="evenodd" d="M350.832 395.041C350.162 395.213 349.759 395.894 349.93 396.563C350.101 397.232 350.782 397.636 351.451 397.464C352.121 397.293 352.524 396.611 352.353 395.942C352.182 395.273 351.501 394.869 350.832 395.041" fill="#C8ED56"/>
<path fill-rule="evenodd" clip-rule="evenodd" d="M352.454 401.082C351.785 401.254 351.381 401.935 351.552 402.604C351.723 403.273 352.404 403.677 353.073 403.505C353.743 403.334 354.146 402.652 353.975 401.983C353.804 401.314 353.123 400.911 352.454 401.082" fill="#C8ED56"/>
<path fill-rule="evenodd" clip-rule="evenodd" d="M347.825 408.488C347.156 408.659 346.752 409.341 346.923 410.01C347.094 410.679 347.775 411.082 348.445 410.911C349.114 410.739 349.517 410.058 349.346 409.389C349.175 408.719 348.494 408.316 347.825 408.488" fill="#C8ED56"/>
<path fill-rule="evenodd" clip-rule="evenodd" d="M349.447 414.529C348.778 414.7 348.374 415.382 348.545 416.051C348.716 416.72 349.398 417.123 350.067 416.952C350.736 416.78 351.139 416.099 350.968 415.43C350.797 414.76 350.116 414.357 349.447 414.529" fill="#C8ED56"/>
<path fill-rule="evenodd" clip-rule="evenodd" d="M353.901 407.044C353.232 407.215 352.828 407.897 352.999 408.566C353.17 409.235 353.852 409.638 354.521 409.467C355.19 409.295 355.593 408.614 355.422 407.945C355.251 407.275 354.57 406.872 353.901 407.044" fill="#C8ED56"/>
<path fill-rule="evenodd" clip-rule="evenodd" d="M355.523 413.085C354.854 413.256 354.45 413.938 354.621 414.607C354.793 415.276 355.474 415.679 356.143 415.508C356.812 415.336 357.216 414.655 357.044 413.986C356.873 413.316 356.192 412.913 355.523 413.085" fill="#C8ED56"/>
<path fill-rule="evenodd" clip-rule="evenodd" d="M350.895 420.49C350.226 420.661 349.822 421.343 349.994 422.012C350.165 422.681 350.846 423.084 351.515 422.913C352.184 422.741 352.588 422.06 352.416 421.391C352.245 420.722 351.564 420.318 350.895 420.49" fill="#C8ED56"/>
<path fill-rule="evenodd" clip-rule="evenodd" d="M352.517 426.531C351.848 426.702 351.444 427.384 351.616 428.053C351.787 428.722 352.468 429.126 353.137 428.954C353.806 428.783 354.21 428.101 354.039 427.432C353.867 426.763 353.186 426.359 352.517 426.531" fill="#C8ED56"/>
<path fill-rule="evenodd" clip-rule="evenodd" d="M356.971 419.046C356.302 419.218 355.899 419.899 356.07 420.568C356.241 421.237 356.922 421.641 357.591 421.469C358.26 421.298 358.664 420.616 358.493 419.947C358.321 419.278 357.64 418.874 356.971 419.046" fill="#C8ED56"/>
<path fill-rule="evenodd" clip-rule="evenodd" d="M358.593 425.087C357.924 425.259 357.521 425.94 357.692 426.609C357.863 427.278 358.544 427.682 359.213 427.51C359.882 427.339 360.286 426.657 360.115 425.988C359.944 425.319 359.262 424.916 358.593 425.087" fill="#C8ED56"/>
<path fill-rule="evenodd" clip-rule="evenodd" d="M353.964 432.492C353.295 432.664 352.892 433.345 353.063 434.014C353.234 434.684 353.915 435.087 354.584 434.916C355.253 434.744 355.657 434.063 355.486 433.393C355.315 432.724 354.634 432.321 353.964 432.492" fill="#C8ED56"/>
<path fill-rule="evenodd" clip-rule="evenodd" d="M355.586 438.533C354.917 438.705 354.514 439.386 354.685 440.056C354.856 440.725 355.537 441.128 356.206 440.957C356.875 440.785 357.279 440.104 357.108 439.434C356.937 438.765 356.256 438.362 355.586 438.533" fill="#C8ED56"/>
<path fill-rule="evenodd" clip-rule="evenodd" d="M360.042 431.049C359.372 431.22 358.969 431.902 359.14 432.571C359.311 433.24 359.992 433.643 360.661 433.472C361.331 433.3 361.734 432.619 361.563 431.95C361.392 431.281 360.711 430.877 360.042 431.049" fill="#C8ED56"/>
<path fill-rule="evenodd" clip-rule="evenodd" d="M356.755 393.409C356.086 393.58 355.683 394.262 355.854 394.931C356.025 395.6 356.706 396.004 357.375 395.832C358.044 395.661 358.448 394.979 358.277 394.31C358.106 393.641 357.425 393.237 356.755 393.409" fill="#C8ED56"/>
<path fill-rule="evenodd" clip-rule="evenodd" d="M358.378 399.45C357.708 399.621 357.305 400.303 357.476 400.972C357.647 401.641 358.328 402.045 358.997 401.873C359.666 401.702 360.07 401.02 359.899 400.351C359.728 399.682 359.047 399.278 358.378 399.45" fill="#C8ED56"/>
<path fill-rule="evenodd" clip-rule="evenodd" d="M359.826 405.411C359.157 405.583 358.753 406.264 358.924 406.934C359.095 407.603 359.776 408.006 360.446 407.835C361.115 407.663 361.518 406.982 361.347 406.313C361.176 405.643 360.495 405.24 359.826 405.411" fill="#C8ED56"/>
</g>
</svg>
